# xmcd
#
# Track frame offsets: 
#        150
#        21268
#        40589
#        57591
#        69304
#        84889
#        103044
#        119453
#        138135
#        153423
#
# Disc length: 2265 seconds
#
# Revision: 0
# Processed by: cddbd v1.5.2PL0 Copyright (c) Steve Scherf et al.
# Submitted via: ExactAudioCopyFreeDBPlugin 1.0
#
DISCID=7a08d70a
DTITLE=蔡幸娟 - 娟娟之姿
DYEAR=1900
DGENRE=
TTITLE0=琵琶曲
TTITLE1=在春天醒來
TTITLE2=奶奶的手
TTITLE3=希望就像蝴蝶
TTITLE4=蝴蝶結
TTITLE5=不必說寂寞
TTITLE6=青萍果
TTITLE7=酒逢知已
TTITLE8=鄉姿
TTITLE9=愛的艷陽天
EXTD=
EXTT0=
EXTT1=
EXTT2=
EXTT3=
EXTT4=
EXTT5=
EXTT6=
EXTT7=
EXTT8=
EXTT9=
PLAYORDER=
